<svg width="1200" height="1200" viewBox="0 0 1200 1200" fill="none" xmlns="http://www.w3.org/2000/svg">
<circle cx="600" cy="600" r="600" fill="black"/>
<path d="M527.539 386.962C573.721 372.069 597.212 347.862 599.5 315.209V705.379H590.765V386.962H527.539Z" fill="white" stroke="white" stroke-width="0.41596"/>
<path d="M253.422 752.383H517.348" stroke="white" stroke-width="2.91172" stroke-linecap="round"/>
<path d="M476.584 546.274V509.67C517.348 517.573 576.622 496.775 579.534 472.025C582.395 489.486 585.773 496.567 598.668 497.815V546.274H476.584Z" fill="white" stroke="white" stroke-width="0.41596" stroke-linecap="round"/>
<path d="M545.84 568.32H564.766V623.227C572.283 626.639 577.616 627.84 588.268 629.258C578.374 630.488 573.279 631.929 564.766 635.498V689.989H545.84V568.32Z" fill="white"/>
<path d="M564.766 623.227V568.32H545.84V689.989H564.766V635.498M564.766 623.227C572.283 626.639 577.616 627.84 588.268 629.258C578.374 630.488 573.279 631.929 564.766 635.498M564.766 623.227V635.498" stroke="white" stroke-width="0.41596"/>
<path d="M540.226 629.882C489.063 647.352 459.53 582.462 518.804 569.36C490.103 562.912 459.738 591.198 475.545 623.226L471.385 627.386C521.508 620.107 536.691 676.469 486.983 686.452C517.556 698.099 551.457 670.022 536.691 634.457L540.226 629.882Z" fill="white" stroke="white" stroke-width="0.41596"/>
<path d="M532.738 473.896C534.946 474.23 535.78 474.658 536.69 475.768C529.992 481.396 512.148 485.127 483.031 485.127C480.169 484.469 479.849 482.083 481.783 473.896C491.302 435.459 502.997 412.126 523.587 394.032C527.515 390.58 532.361 390.527 537.313 391.536C547.712 395.28 561.023 404.847 566.847 420.446C570.382 439.58 542.513 466.825 511.732 459.338C505.622 458.23 509.86 452.058 522.131 431.676C526.879 425.568 529.126 422.994 534.818 419.822C537.313 418.574 538.977 419.614 538.977 423.565V433.132C538.861 434.364 538.507 434.742 537.313 434.796H532.322C522.339 437.708 519.219 453.306 521.715 453.098C542.513 453.93 559.983 438.124 558.319 421.485C558.007 418.366 543.345 404.639 535.65 403.807C523.587 401.311 501.957 434.38 495.718 468.281C500.743 474.324 513.604 476.184 532.738 473.896Z" fill="white"/>
<path d="M536.69 475.768L536.823 475.927L536.981 475.795L536.85 475.636L536.69 475.768ZM532.738 473.896L532.769 473.691L532.713 473.69L532.738 473.896ZM495.718 468.281L495.513 468.243L495.495 468.339L495.558 468.414L495.718 468.281ZM483.031 485.127L482.984 485.33L483.007 485.335H483.031V485.127ZM481.783 473.896L481.581 473.846L481.58 473.848L481.783 473.896ZM523.587 394.032L523.724 394.188L523.724 394.188L523.587 394.032ZM537.313 391.536L537.384 391.341L537.37 391.335L537.355 391.332L537.313 391.536ZM566.847 420.446L567.051 420.408L567.048 420.39L567.041 420.373L566.847 420.446ZM511.732 459.338L511.781 459.135L511.769 459.133L511.732 459.338ZM522.131 431.676L521.967 431.549L521.959 431.559L521.953 431.569L522.131 431.676ZM534.818 419.822L534.725 419.635L534.716 419.64L534.818 419.822ZM538.977 433.132L539.184 433.152L539.185 433.142V433.132H538.977ZM537.313 434.796V435.004L537.323 435.004L537.313 434.796ZM532.322 434.796V434.588H532.292L532.264 434.596L532.322 434.796ZM521.715 453.098L521.723 452.891L521.71 452.89L521.698 452.891L521.715 453.098ZM558.319 421.485L558.113 421.506L558.113 421.506L558.319 421.485ZM535.65 403.807L535.608 404.011L535.617 404.013L535.627 404.014L535.65 403.807ZM536.85 475.636C536.383 475.065 535.924 474.658 535.291 474.354C534.664 474.052 533.879 473.858 532.769 473.691L532.707 474.102C533.805 474.268 534.541 474.455 535.111 474.728C535.674 474.999 536.087 475.361 536.529 475.9L536.85 475.636ZM532.713 473.69C523.156 474.832 515.178 474.938 508.968 474.007C502.753 473.076 498.342 471.112 495.877 468.148L495.558 468.414C498.118 471.493 502.651 473.481 508.906 474.418C515.167 475.357 523.186 475.248 532.763 474.103L532.713 473.69ZM536.556 475.609C533.25 478.387 527.16 480.719 518.23 482.354C509.309 483.987 497.582 484.919 483.031 484.919V485.335C497.597 485.335 509.351 484.402 518.305 482.763C527.251 481.125 533.431 478.778 536.823 475.927L536.556 475.609ZM483.077 484.924C482.387 484.766 481.875 484.508 481.511 484.106C481.147 483.704 480.91 483.134 480.815 482.311C480.624 480.65 481.017 478.042 481.985 473.944L481.58 473.848C480.615 477.937 480.201 480.615 480.402 482.358C480.503 483.237 480.762 483.899 481.203 484.385C481.643 484.871 482.244 485.159 482.984 485.33L483.077 484.924ZM481.985 473.946C491.499 435.529 503.179 412.243 523.724 394.188L523.45 393.876C502.814 412.009 491.105 435.389 481.581 473.846L481.985 473.946ZM523.724 394.188C527.578 390.801 532.341 390.735 537.272 391.74L537.355 391.332C532.381 390.319 527.452 390.359 523.45 393.876L523.724 394.188ZM537.243 391.732C547.599 395.46 560.855 404.99 566.652 420.518L567.041 420.373C561.192 404.704 547.826 395.1 537.384 391.341L537.243 391.732ZM566.642 420.483C568.39 429.943 562.372 441.468 552.028 449.712C541.696 457.947 527.098 462.861 511.781 459.136L511.683 459.54C527.147 463.301 541.874 458.337 552.288 450.037C562.69 441.747 568.839 430.082 567.051 420.408L566.642 420.483ZM511.769 459.133C510.274 458.862 509.495 458.299 509.255 457.363C509.131 456.879 509.143 456.273 509.305 455.516C509.467 454.761 509.775 453.868 510.23 452.817C512.052 448.605 516.167 441.985 522.309 431.784L521.953 431.569C515.824 441.75 511.685 448.406 509.848 452.652C509.388 453.716 509.068 454.637 508.898 455.429C508.729 456.221 508.706 456.897 508.852 457.466C509.152 458.636 510.135 459.26 511.695 459.542L511.769 459.133ZM522.295 431.804C527.038 425.703 529.265 423.155 534.919 420.003L534.716 419.64C528.988 422.833 526.72 425.434 521.967 431.549L522.295 431.804ZM534.911 420.008C536.132 419.397 537.07 419.385 537.701 419.904C538.353 420.439 538.769 421.601 538.769 423.565H539.185C539.185 421.578 538.77 420.244 537.965 419.583C537.141 418.906 535.999 418.998 534.725 419.636L534.911 420.008ZM538.769 423.565V433.132H539.185V423.565H538.769ZM538.77 433.113C538.713 433.723 538.599 434.06 538.402 434.26C538.207 434.456 537.89 434.562 537.304 434.588L537.323 435.004C537.931 434.976 538.387 434.866 538.697 434.552C539.004 434.241 539.126 433.774 539.184 433.152L538.77 433.113ZM537.313 434.588H532.322V435.004H537.313V434.588ZM532.264 434.596C527.182 436.079 523.872 440.778 522.146 445.039C521.282 447.174 520.807 449.217 520.708 450.722C520.659 451.472 520.701 452.106 520.847 452.555C520.92 452.78 521.024 452.975 521.172 453.112C521.325 453.254 521.516 453.324 521.732 453.306L521.698 452.891C521.602 452.899 521.525 452.871 521.454 452.806C521.378 452.736 521.303 452.614 521.243 452.427C521.121 452.052 521.075 451.479 521.123 450.75C521.219 449.298 521.68 447.298 522.532 445.195C524.238 440.982 527.479 436.425 532.38 434.996L532.264 434.596ZM521.707 453.306C532.16 453.724 541.779 449.961 548.578 444C555.375 438.039 559.366 429.866 558.526 421.465L558.113 421.506C558.936 429.744 555.025 437.793 548.303 443.687C541.583 449.58 532.068 453.304 521.723 452.891L521.707 453.306ZM558.526 421.465C558.482 421.02 558.192 420.427 557.745 419.75C557.292 419.063 556.657 418.26 555.884 417.386C554.337 415.639 552.227 413.597 549.887 411.629C547.548 409.661 544.974 407.762 542.5 406.302C540.031 404.846 537.641 403.813 535.672 403.6L535.627 404.014C537.506 404.217 539.834 405.212 542.289 406.661C544.738 408.106 547.292 409.99 549.619 411.948C551.946 413.905 554.041 415.932 555.572 417.662C556.338 418.527 556.959 419.314 557.398 419.979C557.843 420.653 558.079 421.171 558.113 421.506L558.526 421.465ZM535.692 403.603C532.576 402.959 528.896 404.615 525.063 407.903C521.22 411.2 517.178 416.178 513.324 422.284C505.615 434.499 498.638 451.266 495.513 468.243L495.922 468.318C499.037 451.395 505.994 434.678 513.676 422.506C517.517 416.42 521.534 411.48 525.334 408.219C529.145 404.949 532.691 403.407 535.608 404.011L535.692 403.603Z" fill="white"/>
<path d="M228.257 692.692C188.325 741.151 120.731 780.459 60.209 776.716C147.769 733.872 173.766 706.21 203.299 636.121C245.116 553.786 278.748 522.119 356.58 494.695L451.627 469.947C466.206 469.192 469.513 474.521 469.513 480.346V709.123H301.258L416.271 656.297V541.906C340.774 520.278 241.152 608.461 228.257 692.692Z" fill="white"/>
<path d="M671.461 386.753C625.279 371.86 601.788 347.653 599.5 315V705.17H608.235V386.753H671.461Z" fill="white" stroke="white" stroke-width="0.41596"/>
<path d="M945.578 752.174H681.652" stroke="white" stroke-width="2.91172" stroke-linecap="round"/>
<path d="M722.418 546.067V509.463C681.654 517.366 622.38 496.568 619.468 471.818C616.607 489.279 613.228 496.36 600.334 497.608V546.067H722.418Z" fill="white" stroke="white" stroke-width="0.41596" stroke-linecap="round"/>
<path d="M653.158 568.111H634.232V623.018C626.715 626.43 621.382 627.631 610.73 629.049C620.624 630.279 625.719 631.72 634.232 635.289V689.78H653.158V568.111Z" fill="white"/>
<path d="M634.232 623.018V568.111H653.158V689.78H634.232V635.289M634.232 623.018C626.715 626.43 621.382 627.631 610.73 629.049C620.624 630.279 625.719 631.72 634.232 635.289M634.232 623.018V635.289" stroke="white" stroke-width="0.41596"/>
<path d="M658.776 629.673C709.939 647.143 739.472 582.253 680.198 569.151C708.899 562.703 739.264 590.989 723.457 623.017L727.617 627.177C677.494 619.898 662.311 676.26 712.019 686.243C681.445 697.89 647.545 669.813 662.311 634.248L658.776 629.673Z" fill="white" stroke="white" stroke-width="0.41596"/>
<path d="M666.262 473.689C664.054 474.023 663.22 474.451 662.31 475.561C669.008 481.189 686.852 484.92 715.969 484.92C718.831 484.262 719.151 481.875 717.217 473.689C707.698 435.252 696.003 411.919 675.413 393.825C671.485 390.373 666.639 390.32 661.687 391.329C651.288 395.073 637.977 404.64 632.153 420.238C628.618 439.373 656.487 466.618 687.268 459.131C693.378 458.023 689.14 451.851 676.869 431.469C672.121 425.361 669.874 422.787 664.182 419.615C661.687 418.367 660.023 419.407 660.023 423.358V432.925C660.139 434.157 660.493 434.535 661.687 434.589H666.678C676.661 437.501 679.781 453.099 677.285 452.891C656.487 453.723 639.017 437.917 640.681 421.278C640.993 418.159 655.655 404.432 663.35 403.6C675.413 401.104 697.043 434.173 703.282 468.074C698.257 474.117 685.396 475.977 666.262 473.689Z" fill="white"/>
<path d="M662.31 475.561L662.177 475.72L662.019 475.588L662.15 475.429L662.31 475.561ZM666.262 473.689L666.231 473.483L666.287 473.483L666.262 473.689ZM703.282 468.074L703.487 468.036L703.505 468.132L703.442 468.207L703.282 468.074ZM715.969 484.92L716.016 485.123L715.993 485.128H715.969V484.92ZM717.217 473.689L717.419 473.639L717.42 473.641L717.217 473.689ZM675.413 393.825L675.276 393.981L675.276 393.981L675.413 393.825ZM661.687 391.329L661.616 391.134L661.63 391.128L661.645 391.125L661.687 391.329ZM632.153 420.238L631.949 420.201L631.952 420.183L631.959 420.166L632.153 420.238ZM687.268 459.131L687.219 458.928L687.231 458.926L687.268 459.131ZM676.869 431.469L677.033 431.342L677.041 431.352L677.047 431.362L676.869 431.469ZM664.182 419.615L664.275 419.428L664.284 419.433L664.182 419.615ZM660.023 432.925L659.816 432.945L659.815 432.935V432.925H660.023ZM661.687 434.589V434.797L661.677 434.797L661.687 434.589ZM666.678 434.589V434.381H666.708L666.736 434.389L666.678 434.589ZM677.285 452.891L677.277 452.684L677.29 452.683L677.302 452.684L677.285 452.891ZM640.681 421.278L640.887 421.299L640.887 421.299L640.681 421.278ZM663.35 403.6L663.392 403.804L663.383 403.806L663.373 403.807L663.35 403.6ZM662.15 475.429C662.617 474.858 663.076 474.451 663.709 474.146C664.336 473.845 665.121 473.651 666.231 473.483L666.293 473.895C665.195 474.061 664.459 474.248 663.889 474.521C663.326 474.792 662.913 475.154 662.471 475.693L662.15 475.429ZM666.287 473.483C675.844 474.625 683.822 474.731 690.032 473.8C696.247 472.869 700.658 470.905 703.123 467.941L703.442 468.207C700.882 471.286 696.349 473.274 690.094 474.211C683.833 475.149 675.814 475.041 666.237 473.896L666.287 473.483ZM662.444 475.402C665.75 478.18 671.84 480.512 680.77 482.147C689.691 483.78 701.418 484.712 715.969 484.712V485.128C701.403 485.128 689.649 484.195 680.695 482.556C671.749 480.918 665.569 478.571 662.177 475.72L662.444 475.402ZM715.923 484.717C716.613 484.559 717.125 484.301 717.489 483.899C717.853 483.497 718.09 482.927 718.185 482.104C718.376 480.443 717.983 477.835 717.015 473.737L717.42 473.641C718.385 477.73 718.799 480.408 718.598 482.151C718.497 483.03 718.238 483.692 717.797 484.178C717.357 484.664 716.756 484.952 716.016 485.123L715.923 484.717ZM717.015 473.739C707.501 435.322 695.821 412.036 675.276 393.981L675.55 393.669C696.186 411.802 707.895 435.182 717.419 473.639L717.015 473.739ZM675.276 393.981C671.422 390.594 666.659 390.528 661.728 391.533L661.645 391.125C666.619 390.112 671.548 390.152 675.55 393.669L675.276 393.981ZM661.757 391.525C651.401 395.253 638.145 404.783 632.348 420.311L631.959 420.166C637.808 404.497 651.174 394.893 661.616 391.134L661.757 391.525ZM632.358 420.276C630.61 429.736 636.628 441.261 646.972 449.505C657.304 457.74 671.902 462.654 687.219 458.929L687.317 459.333C671.853 463.094 657.126 458.13 646.712 449.83C636.31 441.54 630.161 429.875 631.949 420.201L632.358 420.276ZM687.231 458.926C688.726 458.655 689.505 458.092 689.745 457.156C689.869 456.672 689.857 456.066 689.695 455.309C689.533 454.554 689.225 453.661 688.77 452.61C686.948 448.398 682.833 441.778 676.691 431.577L677.047 431.362C683.176 441.543 687.315 448.199 689.152 452.445C689.612 453.509 689.932 454.43 690.102 455.222C690.271 456.014 690.294 456.69 690.148 457.259C689.848 458.429 688.865 459.053 687.305 459.335L687.231 458.926ZM676.705 431.597C671.962 425.496 669.735 422.948 664.081 419.796L664.284 419.433C670.012 422.626 672.28 425.227 677.033 431.342L676.705 431.597ZM664.089 419.801C662.868 419.19 661.93 419.178 661.299 419.697C660.647 420.232 660.231 421.394 660.231 423.358H659.815C659.815 421.371 660.23 420.037 661.035 419.376C661.859 418.699 663.001 418.791 664.275 419.429L664.089 419.801ZM660.231 423.358V432.925H659.815V423.358H660.231ZM660.23 432.906C660.287 433.516 660.401 433.853 660.598 434.052C660.793 434.249 661.11 434.355 661.696 434.381L661.677 434.797C661.069 434.769 660.613 434.659 660.303 434.345C659.996 434.034 659.874 433.566 659.816 432.945L660.23 432.906ZM661.687 434.381H666.678V434.797H661.687V434.381ZM666.736 434.389C671.818 435.872 675.128 440.571 676.854 444.832C677.718 446.967 678.193 449.01 678.292 450.515C678.341 451.265 678.299 451.899 678.153 452.348C678.08 452.573 677.976 452.768 677.828 452.905C677.675 453.047 677.484 453.117 677.268 453.099L677.302 452.684C677.398 452.692 677.475 452.664 677.546 452.599C677.622 452.529 677.697 452.407 677.757 452.22C677.879 451.844 677.925 451.272 677.877 450.543C677.781 449.091 677.32 447.091 676.468 444.988C674.762 440.775 671.521 436.218 666.62 434.789L666.736 434.389ZM677.293 453.099C666.84 453.517 657.221 449.754 650.422 443.793C643.625 437.832 639.634 429.659 640.474 421.258L640.887 421.299C640.064 429.537 643.975 437.586 650.697 443.48C657.417 449.373 666.932 453.097 677.277 452.684L677.293 453.099ZM640.474 421.258C640.518 420.813 640.808 420.22 641.255 419.543C641.708 418.856 642.343 418.053 643.116 417.179C644.663 415.432 646.773 413.39 649.113 411.422C651.452 409.454 654.026 407.555 656.5 406.095C658.969 404.638 661.359 403.606 663.328 403.393L663.373 403.807C661.494 404.01 659.166 405.005 656.711 406.454C654.262 407.899 651.708 409.783 649.381 411.74C647.054 413.698 644.959 415.725 643.428 417.455C642.662 418.32 642.041 419.107 641.602 419.772C641.157 420.446 640.921 420.964 640.887 421.299L640.474 421.258ZM663.308 403.396C666.424 402.752 670.104 404.408 673.937 407.696C677.78 410.993 681.822 415.971 685.676 422.077C693.385 434.292 700.362 451.059 703.487 468.036L703.078 468.111C699.963 451.188 693.006 434.471 685.324 422.299C681.483 416.213 677.466 411.273 673.666 408.012C669.855 404.742 666.309 403.2 663.392 403.804L663.308 403.396Z" fill="white"/>
<path d="M970.743 692.485C1010.68 740.944 1078.27 780.252 1138.79 776.509C1051.23 733.665 1025.23 706.003 995.701 635.914C953.884 553.579 920.252 521.912 842.42 494.488L747.373 469.739C732.794 468.985 729.487 474.314 729.487 480.138V708.916H897.742L782.729 656.09V541.699C858.226 520.071 957.848 608.254 970.743 692.485Z" fill="white"/>
<path d="M610.221 753.804C610.221 746.921 611.454 741.529 613.921 737.63C616.428 733.731 620.566 731.781 626.335 731.781C632.104 731.781 636.223 733.731 638.689 737.63C641.196 741.529 642.45 746.921 642.45 753.804C642.45 760.728 641.196 766.159 638.689 770.098C636.223 774.037 632.104 776.006 626.335 776.006C620.566 776.006 616.428 774.037 613.921 770.098C611.454 766.159 610.221 760.728 610.221 753.804ZM634.213 753.804C634.213 750.86 634.014 748.393 633.616 746.404C633.258 744.374 632.502 742.723 631.348 741.45C630.234 740.177 628.563 739.54 626.335 739.54C624.107 739.54 622.416 740.177 621.262 741.45C620.148 742.723 619.392 744.374 618.994 746.404C618.636 748.393 618.457 750.86 618.457 753.804C618.457 756.828 618.636 759.375 618.994 761.444C619.352 763.473 620.108 765.124 621.262 766.397C622.416 767.631 624.107 768.248 626.335 768.248C628.563 768.248 630.254 767.631 631.408 766.397C632.562 765.124 633.318 763.473 633.676 761.444C634.034 759.375 634.213 756.828 634.213 753.804Z" fill="white"/>
<path d="M599.372 776.544C597.86 776.544 596.607 776.086 595.612 775.171C594.657 774.216 594.18 773.042 594.18 771.65C594.18 770.257 594.657 769.103 595.612 768.188C596.607 767.233 597.86 766.756 599.372 766.756C600.844 766.756 602.058 767.233 603.013 768.188C603.968 769.103 604.445 770.257 604.445 771.65C604.445 773.042 603.968 774.216 603.013 775.171C602.058 776.086 600.844 776.544 599.372 776.544Z" fill="white"/>
<path d="M563.647 753.088C559.668 751.019 557.679 747.816 557.679 743.479C557.679 741.331 558.216 739.381 559.29 737.63C560.404 735.84 562.055 734.427 564.244 733.393C566.472 732.318 569.178 731.781 572.361 731.781C575.544 731.781 578.23 732.318 580.418 733.393C582.646 734.427 584.297 735.84 585.372 737.63C586.486 739.381 587.043 741.331 587.043 743.479C587.043 745.667 586.506 747.597 585.431 749.268C584.357 750.9 582.925 752.173 581.134 753.088C583.322 754.043 585.033 755.436 586.267 757.266C587.5 759.096 588.117 761.265 588.117 763.771C588.117 766.477 587.421 768.844 586.028 770.874C584.675 772.863 582.805 774.395 580.418 775.469C578.031 776.543 575.345 777.081 572.361 777.081C569.377 777.081 566.691 776.543 564.303 775.469C561.956 774.395 560.086 772.863 558.693 770.874C557.34 768.844 556.664 766.477 556.664 763.771C556.664 761.265 557.281 759.096 558.514 757.266C559.748 755.396 561.459 754.003 563.647 753.088ZM578.926 744.673C578.926 742.723 578.329 741.211 577.135 740.137C575.981 739.063 574.39 738.525 572.361 738.525C570.371 738.525 568.78 739.063 567.586 740.137C566.432 741.211 565.855 742.743 565.855 744.732C565.855 746.523 566.452 747.955 567.646 749.03C568.879 750.104 570.451 750.641 572.361 750.641C574.271 750.641 575.842 750.104 577.076 749.03C578.309 747.916 578.926 746.463 578.926 744.673ZM572.361 756.729C570.093 756.729 568.243 757.306 566.81 758.46C565.418 759.613 564.721 761.265 564.721 763.413C564.721 765.403 565.398 767.034 566.75 768.307C568.143 769.541 570.013 770.157 572.361 770.157C574.708 770.157 576.558 769.521 577.911 768.248C579.264 766.974 579.94 765.363 579.94 763.413C579.94 761.304 579.244 759.673 577.852 758.519C576.459 757.326 574.629 756.729 572.361 756.729Z" fill="white"/>
</svg>
