<svg width="3728" height="1597" viewBox="0 0 3728 1597" fill="none" xmlns="http://www.w3.org/2000/svg">
<path d="M1615.37 248.63C1774.93 197.174 1856.09 113.537 1864 0.719453V1348.78H1833.82V248.63H1615.37Z" fill="white"/>
<path d="M1439.32 799.063V672.593C1580.16 699.899 1784.95 628.041 1795.02 542.53C1804.9 602.856 1816.57 627.322 1861.12 631.634V799.063H1439.32Z" fill="white"/>
<path d="M1678.6 875.232H1743.99V1064.94C1769.97 1076.73 1788.39 1080.88 1825.19 1085.78C1791.01 1090.02 1773.41 1095 1743.99 1107.33V1295.6H1678.6V875.232Z" fill="white"/>
<path d="M1659.21 1087.93C1482.44 1148.29 1380.4 924.097 1585.19 878.827C1486.03 856.551 1381.12 954.278 1435.73 1064.94L1421.36 1079.31C1594.54 1054.16 1646.99 1248.9 1475.25 1283.39C1580.88 1323.63 1698.01 1226.62 1646.99 1103.74L1659.21 1087.93Z" fill="white"/>
<path d="M1633.33 548.996C1640.96 550.149 1643.84 551.629 1646.98 555.464C1623.84 574.91 1562.19 587.8 1461.59 587.8C1451.7 585.525 1450.6 577.281 1457.28 548.996C1490.17 416.193 1530.57 335.578 1601.71 273.061C1615.29 261.134 1632.03 260.951 1649.14 264.439C1685.07 277.373 1731.06 310.428 1751.18 364.322C1763.39 430.431 1667.1 524.565 1560.75 498.696C1539.64 494.868 1554.29 473.546 1596.68 403.125C1613.09 382.021 1620.85 373.128 1640.52 362.166C1649.14 357.854 1654.89 361.447 1654.89 375.1V408.155C1654.49 412.41 1653.27 413.716 1649.14 413.904H1631.89C1597.4 423.964 1586.62 477.857 1595.25 477.139C1667.1 480.013 1727.47 425.401 1721.72 367.915C1720.64 357.136 1669.98 309.709 1643.39 306.835C1601.71 298.212 1526.98 412.467 1505.42 529.595C1522.79 550.475 1567.22 556.901 1633.33 548.996Z" fill="white"/>
<path d="M581.332 1304.95C443.365 1472.37 209.826 1608.19 0.71875 1595.25C303.241 1447.22 393.064 1351.65 495.103 1109.49C639.582 825.018 755.783 715.608 1024.7 620.856L1353.09 535.349C1403.46 532.744 1414.89 551.154 1414.89 571.278V1361.72H833.554L1230.93 1179.2V783.974C970.085 709.246 625.884 1013.93 581.332 1304.95Z" fill="white"/>
<path d="M2112.63 247.911C1953.06 196.455 1871.9 112.818 1864 0.000488281V1348.06H1894.18V247.911H2112.63Z" fill="white"/>
<path d="M2288.69 798.345V671.875C2147.84 699.181 1943.05 627.323 1932.99 541.812C1923.1 602.139 1911.43 626.604 1866.88 630.916V798.345H2288.69Z" fill="white"/>
<path d="M2049.39 874.515H1984V1064.22C1958.03 1076.01 1939.6 1080.16 1902.8 1085.06C1936.98 1089.31 1954.59 1094.29 1984 1106.62V1294.88H2049.39V874.515Z" fill="white"/>
<path d="M2068.8 1087.21C2245.57 1147.58 2347.61 923.378 2142.81 878.107C2241.98 855.831 2346.89 953.558 2292.28 1064.22L2306.65 1078.59C2133.47 1053.44 2081.02 1248.18 2252.76 1282.67C2147.13 1322.91 2030 1225.9 2081.02 1103.02L2068.8 1087.21Z" fill="white"/>
<path d="M2094.66 548.279C2087.04 549.432 2084.15 550.911 2081.01 554.746C2104.15 574.193 2165.8 587.082 2266.4 587.082C2276.29 584.807 2277.4 576.563 2270.72 548.279C2237.83 415.476 2197.42 334.86 2126.28 272.344C2112.71 260.417 2095.97 260.234 2078.85 263.721C2042.93 276.656 1996.94 309.71 1976.82 363.604C1964.6 429.714 2060.89 523.848 2167.24 497.979C2188.35 494.151 2173.71 472.829 2131.31 402.408C2114.91 381.304 2107.14 372.41 2087.48 361.449C2078.85 357.137 2073.11 360.73 2073.11 374.383V407.438C2073.51 411.693 2074.73 412.999 2078.85 413.186H2096.1C2130.59 423.247 2141.37 477.14 2132.75 476.422C2060.89 479.296 2000.53 424.684 2006.28 367.197C2007.36 356.418 2058.02 308.992 2084.6 306.118C2126.28 297.495 2201.01 411.749 2222.57 528.877C2205.21 549.758 2160.77 556.183 2094.66 548.279Z" fill="white"/>
<path d="M3146.66 1304.23C3284.63 1471.66 3518.17 1607.47 3727.28 1594.53C3424.75 1446.51 3334.93 1350.93 3232.89 1108.77C3088.41 824.298 2972.21 714.888 2703.3 620.137L2374.91 534.63C2324.54 532.024 2313.11 550.434 2313.11 570.559V1361H2894.44L2497.06 1178.48V783.254C2757.91 708.526 3102.11 1013.21 3146.66 1304.23Z" fill="white"/>
<path d="M1901.04 1516.09C1901.04 1492.31 1905.3 1473.68 1913.82 1460.21C1922.48 1446.74 1936.78 1440 1956.72 1440C1976.65 1440 1990.88 1446.74 1999.4 1460.21C2008.06 1473.68 2012.39 1492.31 2012.39 1516.09C2012.39 1540.01 2008.06 1558.78 1999.4 1572.39C1990.88 1586 1976.65 1592.8 1956.72 1592.8C1936.78 1592.8 1922.48 1586 1913.82 1572.39C1905.3 1558.78 1901.04 1540.01 1901.04 1516.09ZM1983.93 1516.09C1983.93 1505.92 1983.25 1497.39 1981.87 1490.52C1980.64 1483.51 1978.02 1477.8 1974.04 1473.41C1970.19 1469.01 1964.41 1466.81 1956.72 1466.81C1949.02 1466.81 1943.17 1469.01 1939.19 1473.41C1935.34 1477.8 1932.73 1483.51 1931.35 1490.52C1930.11 1497.39 1929.5 1505.92 1929.5 1516.09C1929.5 1526.54 1930.11 1535.34 1931.35 1542.49C1932.59 1549.5 1935.2 1555.2 1939.19 1559.6C1943.17 1563.86 1949.02 1565.99 1956.72 1565.99C1964.41 1565.99 1970.26 1563.86 1974.24 1559.6C1978.23 1555.2 1980.84 1549.5 1982.08 1542.49C1983.32 1535.34 1983.93 1526.54 1983.93 1516.09Z" fill="white"/>
<path d="M1863.56 1594.66C1858.33 1594.66 1854 1593.08 1850.56 1589.91C1847.26 1586.61 1845.61 1582.56 1845.61 1577.75C1845.61 1572.94 1847.26 1568.95 1850.56 1565.79C1854 1562.49 1858.33 1560.84 1863.56 1560.84C1868.64 1560.84 1872.83 1562.49 1876.13 1565.79C1879.43 1568.95 1881.08 1572.94 1881.08 1577.75C1881.08 1582.56 1879.43 1586.61 1876.13 1589.91C1872.83 1593.08 1868.64 1594.66 1863.56 1594.66Z" fill="white"/>
<path d="M1740.13 1513.62C1726.38 1506.47 1719.5 1495.4 1719.5 1480.42C1719.5 1472.99 1721.36 1466.26 1725.07 1460.21C1728.92 1454.02 1734.63 1449.14 1742.19 1445.57C1749.89 1441.86 1759.23 1440 1770.23 1440C1781.23 1440 1790.51 1441.86 1798.07 1445.57C1805.77 1449.14 1811.47 1454.02 1815.19 1460.21C1819.03 1466.26 1820.96 1472.99 1820.96 1480.42C1820.96 1487.98 1819.1 1494.65 1815.39 1500.42C1811.68 1506.06 1806.73 1510.45 1800.54 1513.62C1808.11 1516.92 1814.02 1521.73 1818.28 1528.05C1822.54 1534.37 1824.67 1541.87 1824.67 1550.53C1824.67 1559.88 1822.27 1568.05 1817.45 1575.07C1812.78 1581.94 1806.32 1587.23 1798.07 1590.94C1789.82 1594.66 1780.54 1596.51 1770.23 1596.51C1759.92 1596.51 1750.64 1594.66 1742.39 1590.94C1734.28 1587.23 1727.82 1581.94 1723.01 1575.07C1718.34 1568.05 1716 1559.88 1716 1550.53C1716 1541.87 1718.13 1534.37 1722.39 1528.05C1726.65 1521.59 1732.56 1516.78 1740.13 1513.62ZM1792.91 1484.54C1792.91 1477.8 1790.85 1472.58 1786.73 1468.87C1782.74 1465.16 1777.24 1463.3 1770.23 1463.3C1763.36 1463.3 1757.86 1465.16 1753.74 1468.87C1749.75 1472.58 1747.76 1477.87 1747.76 1484.75C1747.76 1490.93 1749.82 1495.88 1753.94 1499.59C1758.2 1503.31 1763.63 1505.16 1770.23 1505.16C1776.83 1505.16 1782.26 1503.31 1786.52 1499.59C1790.78 1495.74 1792.91 1490.73 1792.91 1484.54ZM1770.23 1526.19C1762.4 1526.19 1756 1528.19 1751.05 1532.17C1746.24 1536.16 1743.84 1541.87 1743.84 1549.29C1743.84 1556.16 1746.17 1561.8 1750.85 1566.2C1755.66 1570.46 1762.12 1572.59 1770.23 1572.59C1778.34 1572.59 1784.74 1570.39 1789.41 1565.99C1794.08 1561.59 1796.42 1556.03 1796.42 1549.29C1796.42 1542 1794.01 1536.37 1789.2 1532.38C1784.39 1528.26 1778.07 1526.19 1770.23 1526.19Z" fill="white"/>
</svg>
